<svg width="246" height="136" viewBox="0 0 246 136" fill="none" xmlns="http://www.w3.org/2000/svg">
<g clip-path="url(#clip0_3_3)">
<path d="M34.31 74.47C35.4767 72.65 37.0867 71.18 39.14 70.06C41.1933 68.94 43.5967 68.38 46.35 68.38C49.57 68.38 52.4867 69.1967 55.1 70.83C57.7133 72.4633 59.7667 74.7967 61.26 77.83C62.8 80.8633 63.57 84.3867 63.57 88.4C63.57 92.4133 62.8 95.96 61.26 99.04C59.7667 102.073 57.7133 104.43 55.1 106.11C52.4867 107.743 49.57 108.56 46.35 108.56C43.6433 108.56 41.24 108 39.14 106.88C37.0867 105.76 35.4767 104.313 34.31 102.54V126.62H22.34V68.94H34.31V74.47ZM51.39 88.4C51.39 85.4133 50.55 83.08 48.87 81.4C47.2367 79.6733 45.2067 78.81 42.78 78.81C40.4 78.81 38.37 79.6733 36.69 81.4C35.0567 83.1267 34.24 85.4833 34.24 88.47C34.24 91.4567 35.0567 93.8133 36.69 95.54C38.37 97.2667 40.4 98.13 42.78 98.13C45.16 98.13 47.19 97.2667 48.87 95.54C50.55 93.7667 51.39 91.3867 51.39 88.4ZM79.0198 75.45C80.4198 73.3033 82.1698 71.6233 84.2698 70.41C86.3698 69.15 88.7031 68.52 91.2698 68.52V81.19H87.9798C84.9931 81.19 82.7531 81.8433 81.2598 83.15C79.7664 84.41 79.0198 86.65 79.0198 89.87V108H67.0498V68.94H79.0198V75.45ZM131.011 87.84C131.011 88.96 130.941 90.1267 130.801 91.34H103.711C103.898 93.7667 104.668 95.6333 106.021 96.94C107.421 98.2 109.125 98.83 111.131 98.83C114.118 98.83 116.195 97.57 117.361 95.05H130.101C129.448 97.6167 128.258 99.9267 126.531 101.98C124.851 104.033 122.728 105.643 120.161 106.81C117.595 107.977 114.725 108.56 111.551 108.56C107.725 108.56 104.318 107.743 101.331 106.11C98.3445 104.477 96.0112 102.143 94.3312 99.11C92.6512 96.0767 91.8112 92.53 91.8112 88.47C91.8112 84.41 92.6278 80.8633 94.2612 77.83C95.9412 74.7967 98.2745 72.4633 101.261 70.83C104.248 69.1967 107.678 68.38 111.551 68.38C115.331 68.38 118.691 69.1733 121.631 70.76C124.571 72.3467 126.858 74.61 128.491 77.55C130.171 80.49 131.011 83.92 131.011 87.84ZM118.761 84.69C118.761 82.6367 118.061 81.0033 116.661 79.79C115.261 78.5767 113.511 77.97 111.411 77.97C109.405 77.97 107.701 78.5533 106.301 79.72C104.948 80.8867 104.108 82.5433 103.781 84.69H118.761ZM146.496 74.47C147.663 72.65 149.273 71.18 151.326 70.06C153.379 68.94 155.783 68.38 158.536 68.38C161.756 68.38 164.673 69.1967 167.286 70.83C169.899 72.4633 171.953 74.7967 173.446 77.83C174.986 80.8633 175.756 84.3867 175.756 88.4C175.756 92.4133 174.986 95.96 173.446 99.04C171.953 102.073 169.899 104.43 167.286 106.11C164.673 107.743 161.756 108.56 158.536 108.56C155.829 108.56 153.426 108 151.326 106.88C149.273 105.76 147.663 104.313 146.496 102.54V126.62H134.526V68.94H146.496V74.47ZM163.576 88.4C163.576 85.4133 162.736 83.08 161.056 81.4C159.423 79.6733 157.393 78.81 154.966 78.81C152.586 78.81 150.556 79.6733 148.876 81.4C147.243 83.1267 146.426 85.4833 146.426 88.47C146.426 91.4567 147.243 93.8133 148.876 95.54C150.556 97.2667 152.586 98.13 154.966 98.13C157.346 98.13 159.376 97.2667 161.056 95.54C162.736 93.7667 163.576 91.3867 163.576 88.4ZM216.056 87.84C216.056 88.96 215.986 90.1267 215.846 91.34H188.756C188.942 93.7667 189.712 95.6333 191.066 96.94C192.466 98.2 194.169 98.83 196.176 98.83C199.162 98.83 201.239 97.57 202.406 95.05H215.146C214.492 97.6167 213.302 99.9267 211.576 101.98C209.896 104.033 207.772 105.643 205.206 106.81C202.639 107.977 199.769 108.56 196.596 108.56C192.769 108.56 189.362 107.743 186.376 106.11C183.389 104.477 181.056 102.143 179.376 99.11C177.696 96.0767 176.856 92.53 176.856 88.47C176.856 84.41 177.672 80.8633 179.306 77.83C180.986 74.7967 183.319 72.4633 186.306 70.83C189.292 69.1967 192.722 68.38 196.596 68.38C200.376 68.38 203.736 69.1733 206.676 70.76C209.616 72.3467 211.902 74.61 213.536 77.55C215.216 80.49 216.056 83.92 216.056 87.84ZM203.806 84.69C203.806 82.6367 203.106 81.0033 201.706 79.79C200.306 78.5767 198.556 77.97 196.456 77.97C194.449 77.97 192.746 78.5533 191.346 79.72C189.992 80.8867 189.152 82.5433 188.826 84.69H203.806ZM231.54 75.45C232.94 73.3033 234.69 71.6233 236.79 70.41C238.89 69.15 241.224 68.52 243.79 68.52V81.19H240.5C237.514 81.19 235.274 81.8433 233.78 83.15C232.287 84.41 231.54 86.65 231.54 89.87V108H219.57V68.94H231.54V75.45Z" fill="#FDFCFC"/>
<path d="M68.136 16.9671L39.261 7.34207C38.767 7.1774 38.233 7.1774 37.739 7.34207L8.86402 16.9671C8.38489 17.1268 7.96817 17.4332 7.67288 17.843C7.37759 18.2527 7.21871 18.7449 7.21875 19.25V43.3125C7.21875 43.9507 7.47226 44.5627 7.92352 45.014C8.37478 45.4652 8.98682 45.7187 9.625 45.7187C10.2632 45.7187 10.8752 45.4652 11.3265 45.014C11.7777 44.5627 12.0312 43.9507 12.0312 43.3125V22.5887L22.1345 25.9544C19.4502 30.2911 18.5966 35.5158 19.7611 40.4813C20.9257 45.4467 24.0131 49.7471 28.3456 52.4382C22.9316 54.5617 18.2514 58.4027 14.8285 63.6543C14.6505 63.9189 14.5269 64.2162 14.4648 64.529C14.4027 64.8418 14.4034 65.1638 14.4668 65.4763C14.5302 65.7888 14.6552 66.0856 14.8343 66.3494C15.0135 66.6132 15.2433 66.8388 15.5104 67.013C15.7775 67.1872 16.0766 67.3066 16.3902 67.3642C16.7038 67.4219 17.0258 67.4165 17.3374 67.3486C17.649 67.2807 17.9439 67.1516 18.2051 66.9686C18.4664 66.7857 18.6886 66.5527 18.859 66.2832C23.3918 59.3291 30.5504 55.3437 38.5 55.3437C46.4496 55.3437 53.6082 59.3291 58.141 66.2832C58.4939 66.8077 59.0391 67.1723 59.6587 67.2981C60.2783 67.4238 60.9225 67.3007 61.452 66.9553C61.9815 66.61 62.3539 66.0701 62.4885 65.4523C62.6231 64.8346 62.5092 64.1888 62.1715 63.6543C58.7486 58.4027 54.0504 54.5617 48.6544 52.4382C52.9827 49.7473 56.0672 45.4496 57.2316 40.4878C58.3959 35.5259 57.545 30.3049 54.8655 25.9694L68.136 21.548C68.6152 21.3883 69.032 21.0819 69.3274 20.6722C69.6228 20.2625 69.7818 19.7702 69.7818 19.265C69.7818 18.7599 69.6228 18.2676 69.3274 17.8579C69.032 17.4481 68.6152 17.1417 68.136 16.9821V16.9671ZM52.9375 36.0937C52.9381 38.3762 52.3976 40.6264 51.3602 42.6595C50.3229 44.6926 48.8182 46.4509 46.9698 47.7899C45.1213 49.1289 42.9817 50.0106 40.7265 50.3626C38.4714 50.7146 36.1648 50.5269 33.9962 49.8149C31.8276 49.1029 29.8588 47.8868 28.2511 46.2665C26.6435 44.6462 25.443 42.6679 24.748 40.4938C24.053 38.3196 23.8834 36.0117 24.2531 33.7594C24.6228 31.507 25.5213 29.3744 26.8748 27.5365L37.739 31.1459C38.233 31.3106 38.767 31.3106 39.261 31.1459L50.1252 27.5365C51.9533 30.0149 52.9389 33.014 52.9375 36.0937Z" fill="#FDFCFC" stroke="#FDFCFC"/>
</g>
<defs>
<clipPath id="clip0_3_3">
<rect width="246" height="136" fill="white"/>
</clipPath>
</defs>
</svg>
